<svg xmlns="http://www.w3.org/2000/svg" viewBox="0 0 100 100" width="512" height="512">
<circle cx="50" cy="50" r="36" fill="none" stroke="#F2F3F7" stroke-width="1.4" opacity="0.35"></circle>
<g fill="#F2F3F7" opacity="0.42"><circle cx="69.0" cy="20.6" r="0.55"></circle><circle cx="25.0" cy="25.0" r="0.55"></circle><circle cx="80.0" cy="31.6" r="0.55"></circle><circle cx="82.2" cy="36.0" r="0.55"></circle><circle cx="84.4" cy="42.6" r="0.55"></circle><circle cx="84.4" cy="55.8" r="0.55"></circle><circle cx="84.4" cy="58.0" r="0.55"></circle></g>
    <g fill="#F2F3F7" opacity="0.64"><circle cx="42.6" cy="16.2" r="0.72"></circle><circle cx="47.0" cy="16.2" r="0.72"></circle><circle cx="49.2" cy="16.2" r="0.72"></circle><circle cx="51.4" cy="16.2" r="0.72"></circle><circle cx="36.0" cy="18.4" r="0.72"></circle><circle cx="38.2" cy="18.4" r="0.72"></circle><circle cx="40.4" cy="18.4" r="0.72"></circle><circle cx="42.6" cy="18.4" r="0.72"></circle><circle cx="47.0" cy="18.4" r="0.72"></circle><circle cx="49.2" cy="18.4" r="0.72"></circle><circle cx="51.4" cy="18.4" r="0.72"></circle><circle cx="62.4" cy="18.4" r="0.72"></circle><circle cx="64.6" cy="18.4" r="0.72"></circle><circle cx="31.6" cy="20.6" r="0.72"></circle><circle cx="33.8" cy="20.6" r="0.72"></circle><circle cx="62.4" cy="20.6" r="0.72"></circle><circle cx="64.6" cy="20.6" r="0.72"></circle><circle cx="66.8" cy="20.6" r="0.72"></circle><circle cx="29.4" cy="22.8" r="0.72"></circle><circle cx="31.6" cy="22.8" r="0.72"></circle><circle cx="33.8" cy="22.8" r="0.72"></circle><circle cx="66.8" cy="22.8" r="0.72"></circle><circle cx="69.0" cy="22.8" r="0.72"></circle><circle cx="71.2" cy="22.8" r="0.72"></circle><circle cx="27.2" cy="25.0" r="0.72"></circle><circle cx="29.4" cy="25.0" r="0.72"></circle><circle cx="69.0" cy="25.0" r="0.72"></circle><circle cx="71.2" cy="25.0" r="0.72"></circle><circle cx="73.4" cy="25.0" r="0.72"></circle><circle cx="25.0" cy="27.2" r="0.72"></circle><circle cx="27.2" cy="27.2" r="0.72"></circle><circle cx="73.4" cy="27.2" r="0.72"></circle><circle cx="75.6" cy="27.2" r="0.72"></circle><circle cx="22.8" cy="29.4" r="0.72"></circle><circle cx="25.0" cy="29.4" r="0.72"></circle><circle cx="75.6" cy="29.4" r="0.72"></circle><circle cx="77.8" cy="29.4" r="0.72"></circle><circle cx="20.6" cy="31.6" r="0.72"></circle><circle cx="22.8" cy="31.6" r="0.72"></circle><circle cx="20.6" cy="33.8" r="0.72"></circle><circle cx="22.8" cy="33.8" r="0.72"></circle><circle cx="77.8" cy="33.8" r="0.72"></circle><circle cx="80.0" cy="33.8" r="0.72"></circle><circle cx="20.6" cy="36.0" r="0.72"></circle><circle cx="80.0" cy="36.0" r="0.72"></circle><circle cx="20.6" cy="38.2" r="0.72"></circle><circle cx="80.0" cy="38.2" r="0.72"></circle><circle cx="82.2" cy="38.2" r="0.72"></circle><circle cx="80.0" cy="40.4" r="0.72"></circle><circle cx="82.2" cy="40.4" r="0.72"></circle><circle cx="82.2" cy="42.6" r="0.72"></circle><circle cx="82.2" cy="44.8" r="0.72"></circle><circle cx="84.4" cy="44.8" r="0.72"></circle><circle cx="82.2" cy="47.0" r="0.72"></circle><circle cx="84.4" cy="47.0" r="0.72"></circle><circle cx="82.2" cy="49.2" r="0.72"></circle><circle cx="84.4" cy="49.2" r="0.72"></circle><circle cx="82.2" cy="51.4" r="0.72"></circle><circle cx="84.4" cy="51.4" r="0.72"></circle><circle cx="82.2" cy="53.6" r="0.72"></circle><circle cx="84.4" cy="53.6" r="0.72"></circle><circle cx="82.2" cy="55.8" r="0.72"></circle><circle cx="82.2" cy="58.0" r="0.72"></circle><circle cx="80.0" cy="60.2" r="0.72"></circle><circle cx="82.2" cy="60.2" r="0.72"></circle><circle cx="80.0" cy="62.4" r="0.72"></circle><circle cx="82.2" cy="62.4" r="0.72"></circle><circle cx="77.8" cy="64.6" r="0.72"></circle><circle cx="80.0" cy="64.6" r="0.72"></circle><circle cx="77.8" cy="66.8" r="0.72"></circle><circle cx="80.0" cy="66.8" r="0.72"></circle><circle cx="75.6" cy="69.0" r="0.72"></circle><circle cx="77.8" cy="69.0" r="0.72"></circle><circle cx="75.6" cy="71.2" r="0.72"></circle><circle cx="36.0" cy="80.0" r="0.72"></circle><circle cx="38.2" cy="80.0" r="0.72"></circle></g>
    <g fill="#F2F3F7" opacity="0.82"><circle cx="40.4" cy="20.6" r="0.86"></circle><circle cx="47.0" cy="20.6" r="0.86"></circle><circle cx="38.2" cy="22.8" r="0.86"></circle><circle cx="40.4" cy="22.8" r="0.86"></circle><circle cx="31.6" cy="25.0" r="0.86"></circle><circle cx="33.8" cy="25.0" r="0.86"></circle><circle cx="36.0" cy="25.0" r="0.86"></circle><circle cx="38.2" cy="25.0" r="0.86"></circle><circle cx="40.4" cy="25.0" r="0.86"></circle><circle cx="42.6" cy="25.0" r="0.86"></circle><circle cx="62.4" cy="25.0" r="0.86"></circle><circle cx="64.6" cy="25.0" r="0.86"></circle><circle cx="66.8" cy="25.0" r="0.86"></circle><circle cx="29.4" cy="27.2" r="0.86"></circle><circle cx="31.6" cy="27.2" r="0.86"></circle><circle cx="33.8" cy="27.2" r="0.86"></circle><circle cx="36.0" cy="27.2" r="0.86"></circle><circle cx="38.2" cy="27.2" r="0.86"></circle><circle cx="40.4" cy="27.2" r="0.86"></circle><circle cx="42.6" cy="27.2" r="0.86"></circle><circle cx="66.8" cy="27.2" r="0.86"></circle><circle cx="69.0" cy="27.2" r="0.86"></circle><circle cx="71.2" cy="27.2" r="0.86"></circle><circle cx="27.2" cy="29.4" r="0.86"></circle><circle cx="29.4" cy="29.4" r="0.86"></circle><circle cx="31.6" cy="29.4" r="0.86"></circle><circle cx="33.8" cy="29.4" r="0.86"></circle><circle cx="64.6" cy="29.4" r="0.86"></circle><circle cx="66.8" cy="29.4" r="0.86"></circle><circle cx="25.0" cy="31.6" r="0.86"></circle><circle cx="27.2" cy="31.6" r="0.86"></circle><circle cx="29.4" cy="31.6" r="0.86"></circle><circle cx="31.6" cy="31.6" r="0.86"></circle><circle cx="66.8" cy="31.6" r="0.86"></circle><circle cx="69.0" cy="31.6" r="0.86"></circle><circle cx="71.2" cy="31.6" r="0.86"></circle><circle cx="25.0" cy="33.8" r="0.86"></circle><circle cx="27.2" cy="33.8" r="0.86"></circle><circle cx="29.4" cy="33.8" r="0.86"></circle><circle cx="69.0" cy="33.8" r="0.86"></circle><circle cx="71.2" cy="33.8" r="0.86"></circle><circle cx="73.4" cy="33.8" r="0.86"></circle><circle cx="71.2" cy="36.0" r="0.86"></circle><circle cx="73.4" cy="36.0" r="0.86"></circle><circle cx="75.6" cy="36.0" r="0.86"></circle><circle cx="77.8" cy="36.0" r="0.86"></circle><circle cx="71.2" cy="38.2" r="0.86"></circle><circle cx="73.4" cy="38.2" r="0.86"></circle><circle cx="75.6" cy="38.2" r="0.86"></circle><circle cx="77.8" cy="38.2" r="0.86"></circle><circle cx="20.6" cy="40.4" r="0.86"></circle><circle cx="73.4" cy="40.4" r="0.86"></circle><circle cx="75.6" cy="40.4" r="0.86"></circle><circle cx="77.8" cy="40.4" r="0.86"></circle><circle cx="20.6" cy="42.6" r="0.86"></circle><circle cx="22.8" cy="42.6" r="0.86"></circle><circle cx="73.4" cy="42.6" r="0.86"></circle><circle cx="75.6" cy="42.6" r="0.86"></circle><circle cx="77.8" cy="42.6" r="0.86"></circle><circle cx="80.0" cy="42.6" r="0.86"></circle><circle cx="22.8" cy="44.8" r="0.86"></circle><circle cx="25.0" cy="44.8" r="0.86"></circle><circle cx="73.4" cy="44.8" r="0.86"></circle><circle cx="75.6" cy="44.8" r="0.86"></circle><circle cx="77.8" cy="44.8" r="0.86"></circle><circle cx="80.0" cy="44.8" r="0.86"></circle><circle cx="75.6" cy="47.0" r="0.86"></circle><circle cx="77.8" cy="47.0" r="0.86"></circle><circle cx="80.0" cy="47.0" r="0.86"></circle><circle cx="75.6" cy="49.2" r="0.86"></circle><circle cx="77.8" cy="49.2" r="0.86"></circle><circle cx="80.0" cy="49.2" r="0.86"></circle><circle cx="77.8" cy="51.4" r="0.86"></circle><circle cx="80.0" cy="51.4" r="0.86"></circle><circle cx="77.8" cy="53.6" r="0.86"></circle><circle cx="80.0" cy="53.6" r="0.86"></circle><circle cx="77.8" cy="55.8" r="0.86"></circle><circle cx="80.0" cy="55.8" r="0.86"></circle><circle cx="27.2" cy="58.0" r="0.86"></circle><circle cx="77.8" cy="58.0" r="0.86"></circle><circle cx="80.0" cy="58.0" r="0.86"></circle><circle cx="27.2" cy="60.2" r="0.86"></circle><circle cx="77.8" cy="60.2" r="0.86"></circle><circle cx="29.4" cy="62.4" r="0.86"></circle><circle cx="77.8" cy="62.4" r="0.86"></circle><circle cx="33.8" cy="69.0" r="0.86"></circle><circle cx="33.8" cy="71.2" r="0.86"></circle><circle cx="36.0" cy="71.2" r="0.86"></circle><circle cx="38.2" cy="71.2" r="0.86"></circle><circle cx="33.8" cy="73.4" r="0.86"></circle><circle cx="36.0" cy="73.4" r="0.86"></circle><circle cx="38.2" cy="73.4" r="0.86"></circle><circle cx="40.4" cy="73.4" r="0.86"></circle><circle cx="33.8" cy="75.6" r="0.86"></circle><circle cx="36.0" cy="75.6" r="0.86"></circle><circle cx="38.2" cy="75.6" r="0.86"></circle><circle cx="40.4" cy="75.6" r="0.86"></circle><circle cx="36.0" cy="77.8" r="0.86"></circle></g>
    <g fill="#F2F3F7" opacity="0.96"><circle cx="64.6" cy="31.6" r="0.98"></circle><circle cx="66.8" cy="33.8" r="0.98"></circle><circle cx="64.6" cy="36.0" r="0.98"></circle><circle cx="66.8" cy="36.0" r="0.98"></circle><circle cx="69.0" cy="36.0" r="0.98"></circle><circle cx="64.6" cy="38.2" r="0.98"></circle><circle cx="66.8" cy="38.2" r="0.98"></circle><circle cx="69.0" cy="38.2" r="0.98"></circle><circle cx="62.4" cy="40.4" r="0.98"></circle><circle cx="64.6" cy="40.4" r="0.98"></circle><circle cx="66.8" cy="40.4" r="0.98"></circle><circle cx="69.0" cy="40.4" r="0.98"></circle><circle cx="71.2" cy="40.4" r="0.98"></circle><circle cx="31.6" cy="42.6" r="0.98"></circle><circle cx="64.6" cy="42.6" r="0.98"></circle><circle cx="66.8" cy="42.6" r="0.98"></circle><circle cx="69.0" cy="42.6" r="0.98"></circle><circle cx="71.2" cy="42.6" r="0.98"></circle><circle cx="64.6" cy="44.8" r="0.98"></circle><circle cx="66.8" cy="44.8" r="0.98"></circle><circle cx="69.0" cy="44.8" r="0.98"></circle><circle cx="71.2" cy="44.8" r="0.98"></circle><circle cx="29.4" cy="47.0" r="0.98"></circle><circle cx="31.6" cy="47.0" r="0.98"></circle><circle cx="64.6" cy="47.0" r="0.98"></circle><circle cx="66.8" cy="47.0" r="0.98"></circle><circle cx="69.0" cy="47.0" r="0.98"></circle><circle cx="71.2" cy="47.0" r="0.98"></circle><circle cx="73.4" cy="47.0" r="0.98"></circle><circle cx="27.2" cy="49.2" r="0.98"></circle><circle cx="29.4" cy="49.2" r="0.98"></circle><circle cx="31.6" cy="49.2" r="0.98"></circle><circle cx="33.8" cy="49.2" r="0.98"></circle><circle cx="36.0" cy="49.2" r="0.98"></circle><circle cx="66.8" cy="49.2" r="0.98"></circle><circle cx="69.0" cy="49.2" r="0.98"></circle><circle cx="71.2" cy="49.2" r="0.98"></circle><circle cx="73.4" cy="49.2" r="0.98"></circle><circle cx="27.2" cy="51.4" r="0.98"></circle><circle cx="29.4" cy="51.4" r="0.98"></circle><circle cx="31.6" cy="51.4" r="0.98"></circle><circle cx="33.8" cy="51.4" r="0.98"></circle><circle cx="36.0" cy="51.4" r="0.98"></circle><circle cx="38.2" cy="51.4" r="0.98"></circle><circle cx="40.4" cy="51.4" r="0.98"></circle><circle cx="27.2" cy="53.6" r="0.98"></circle><circle cx="29.4" cy="53.6" r="0.98"></circle><circle cx="31.6" cy="53.6" r="0.98"></circle><circle cx="33.8" cy="53.6" r="0.98"></circle><circle cx="36.0" cy="53.6" r="0.98"></circle><circle cx="38.2" cy="53.6" r="0.98"></circle><circle cx="40.4" cy="53.6" r="0.98"></circle><circle cx="27.2" cy="55.8" r="0.98"></circle><circle cx="29.4" cy="55.8" r="0.98"></circle><circle cx="31.6" cy="55.8" r="0.98"></circle><circle cx="33.8" cy="55.8" r="0.98"></circle><circle cx="36.0" cy="55.8" r="0.98"></circle><circle cx="38.2" cy="55.8" r="0.98"></circle><circle cx="40.4" cy="55.8" r="0.98"></circle><circle cx="42.6" cy="55.8" r="0.98"></circle><circle cx="44.8" cy="55.8" r="0.98"></circle><circle cx="29.4" cy="58.0" r="0.98"></circle><circle cx="31.6" cy="58.0" r="0.98"></circle><circle cx="33.8" cy="58.0" r="0.98"></circle><circle cx="36.0" cy="58.0" r="0.98"></circle><circle cx="38.2" cy="58.0" r="0.98"></circle><circle cx="40.4" cy="58.0" r="0.98"></circle><circle cx="42.6" cy="58.0" r="0.98"></circle><circle cx="44.8" cy="58.0" r="0.98"></circle><circle cx="47.0" cy="58.0" r="0.98"></circle><circle cx="49.2" cy="58.0" r="0.98"></circle><circle cx="29.4" cy="60.2" r="0.98"></circle><circle cx="31.6" cy="60.2" r="0.98"></circle><circle cx="33.8" cy="60.2" r="0.98"></circle><circle cx="36.0" cy="60.2" r="0.98"></circle><circle cx="38.2" cy="60.2" r="0.98"></circle><circle cx="40.4" cy="60.2" r="0.98"></circle><circle cx="42.6" cy="60.2" r="0.98"></circle><circle cx="44.8" cy="60.2" r="0.98"></circle><circle cx="47.0" cy="60.2" r="0.98"></circle><circle cx="49.2" cy="60.2" r="0.98"></circle><circle cx="51.4" cy="60.2" r="0.98"></circle><circle cx="31.6" cy="62.4" r="0.98"></circle><circle cx="33.8" cy="62.4" r="0.98"></circle><circle cx="36.0" cy="62.4" r="0.98"></circle><circle cx="38.2" cy="62.4" r="0.98"></circle><circle cx="40.4" cy="62.4" r="0.98"></circle><circle cx="42.6" cy="62.4" r="0.98"></circle><circle cx="44.8" cy="62.4" r="0.98"></circle><circle cx="47.0" cy="62.4" r="0.98"></circle><circle cx="49.2" cy="62.4" r="0.98"></circle><circle cx="31.6" cy="64.6" r="0.98"></circle><circle cx="33.8" cy="64.6" r="0.98"></circle><circle cx="36.0" cy="64.6" r="0.98"></circle><circle cx="38.2" cy="64.6" r="0.98"></circle><circle cx="40.4" cy="64.6" r="0.98"></circle><circle cx="42.6" cy="64.6" r="0.98"></circle><circle cx="44.8" cy="64.6" r="0.98"></circle><circle cx="47.0" cy="64.6" r="0.98"></circle><circle cx="49.2" cy="64.6" r="0.98"></circle><circle cx="33.8" cy="66.8" r="0.98"></circle><circle cx="36.0" cy="66.8" r="0.98"></circle><circle cx="38.2" cy="66.8" r="0.98"></circle><circle cx="40.4" cy="66.8" r="0.98"></circle><circle cx="42.6" cy="66.8" r="0.98"></circle><circle cx="44.8" cy="66.8" r="0.98"></circle><circle cx="47.0" cy="66.8" r="0.98"></circle><circle cx="36.0" cy="69.0" r="0.98"></circle><circle cx="38.2" cy="69.0" r="0.98"></circle><circle cx="40.4" cy="69.0" r="0.98"></circle><circle cx="42.6" cy="69.0" r="0.98"></circle><circle cx="44.8" cy="69.0" r="0.98"></circle><circle cx="40.4" cy="71.2" r="0.98"></circle><circle cx="42.6" cy="71.2" r="0.98"></circle></g>
    <path d="M20.5,30.7L22.2,28.9L24.0,27.3L26.0,25.7L28.1,24.3L30.3,23.1L32.6,22.0L35.1,21.0L37.6,20.3L40.2,19.7L42.9,19.3L45.6,19.1L48.3,19.0L51.1,19.2L53.8,19.5L56.5,20.0L59.2,20.7L61.8,21.5L64.4,22.5L66.8,23.7L69.2,25.0L71.5,26.5L73.6,28.1L75.6,29.8L77.4,31.7L79.1,33.7" fill="none" stroke="#F2F3F7" stroke-width="0.5" opacity="0.85"></path><path d="M33.9,29.8L35.4,30.1L37.0,30.4L38.6,30.8L40.2,31.2L41.9,31.7L43.6,32.3L45.3,32.8L47.0,33.5L48.7,34.2L50.5,34.9L52.2,35.7L53.9,36.5L55.6,37.4L57.3,38.3L59.0,39.2L60.7,40.1L62.3,41.1L63.9,42.1L65.4,43.2L66.9,44.2L68.4,45.3L69.8,46.4L71.1,47.5L72.4,48.5L73.6,49.6" fill="none" stroke="#F2F3F7" stroke-width="0.5" opacity="0.85"></path><path d="M45.0,68.7L45.9,67.1L46.7,65.4L47.6,63.6L48.5,61.8L49.4,59.9L50.3,58.1L51.2,56.1L52.1,54.2L53.0,52.3L53.8,50.3L54.7,48.3L55.5,46.4L56.4,44.4L57.2,42.5L57.9,40.6L58.7,38.8L59.4,36.9L60.1,35.2L60.7,33.4L61.3,31.8L61.9,30.2L62.4,28.6L62.9,27.2L63.3,25.8L63.7,24.5" fill="none" stroke="#F2F3F7" stroke-width="0.5" opacity="0.85"></path><path d="M39.6,74.1L41.9,74.2L44.2,74.3L46.5,74.3L48.8,74.2L51.1,73.9L53.4,73.6L55.8,73.2L58.0,72.6L60.3,72.0L62.5,71.3L64.7,70.5L66.7,69.6L68.8,68.6L70.7,67.5L72.6,66.4L74.3,65.2L76.0,63.9L77.5,62.6L78.9,61.2L80.2,59.7L81.4,58.3L82.4,56.8L83.3,55.2L84.1,53.7L84.7,52.1" fill="none" stroke="#F2F3F7" stroke-width="0.5" opacity="0.85"></path>
    <circle cx="34.0" cy="29.8" r="0.95" fill="#F2F3F7"></circle><circle cx="63.8" cy="24.6" r="0.95" fill="#F2F3F7"></circle><circle cx="73.7" cy="49.7" r="0.95" fill="#F2F3F7"></circle><circle cx="45.1" cy="68.8" r="0.95" fill="#F2F3F7"></circle><circle cx="84.7" cy="52.1" r="0.95" fill="#F2F3F7"></circle><circle cx="20.6" cy="30.8" r="0.95" fill="#F2F3F7"></circle><circle cx="79.1" cy="33.7" r="0.95" fill="#F2F3F7"></circle><circle cx="39.7" cy="74.1" r="0.95" fill="#F2F3F7"></circle>
<line x1="14" y1="50" x2="86" y2="50" stroke="#F2F3F7" stroke-width="1.4" opacity="0.55"></line>
<circle cx="50" cy="50" r="43" fill="none" stroke="#F2F3F7" stroke-width="2.6" stroke-dasharray="142.6 127.6" stroke-linecap="round" transform="rotate(195 50 50)"></circle>
<circle cx="50" cy="50" r="43" fill="none" stroke="#F2F3F7" stroke-width="2.6" opacity="0.45" stroke-dasharray="112.6 157.6" stroke-linecap="round" transform="rotate(35 50 50)"></circle>
<circle cx="89.0" cy="68.2" r="3.6" fill="#F2F3F7"></circle>
<circle cx="7.2" cy="46.3" r="3.6" fill="#F2F3F7" opacity="0.45"></circle>
</svg>